nColumns=19
nRows=23
DataType=double
version=3
OpenSimVersion=4.1
endheader
time	ground_force_1_vx	ground_force_1_vy	ground_force_1_vz	ground_force_1_px	ground_force_1_py	ground_force_1_pz	ground_moment_1_mx	ground_moment_1_my	ground_moment_1_mz	ground_force_2_vx	ground_force_2_vy	ground_force_2_vz	ground_force_2_px	ground_force_2_py	ground_force_2_pz	ground_moment_2_mx	ground_moment_2_my	ground_moment_2_mz
0.905	0.05294618485203167	-0.2586843600438527	-0.01229260517793649	0.4111139712633595	0.001858350826430167	-0.1542283570273781	-6.372524003892993e-05	-0.01328927627452681	-3.122685526463607e-05	-0.01487514090733692	-0.07962582709392127	-0.009413511921424244	0.3682394958472848	0.0007031685557515628	0.4129114671656635	6.102812450097871e-05	0.0147676405657619	4.387852739969088e-05
0.906	0.03250890748940574	0.3002300037335127	-0.01097081757594716	0.5510353061118378	0.001470506185415052	-0.2747126655450862	2.637157474031459e-05	0.00549953428663865	1.292268725882016e-05	0.007476977002562036	-0.2391424874418508	-0.00228900822019166	0.9013899819290587	-0.0006016467561536688	0.1105282401585894	-4.335365197386573e-05	-0.01049075577528055	-3.11707826771151e-05
0.907	0.02380802573875583	0.0619983291323943	-0.01152784226938043	-2.162169920641623	0.01280926291866596	0.4367193157943954	5.864372609589135e-05	0.01222957618331262	2.87367948062124e-05	-0.02190438914931762	0.07957045638308272	0.01404389912963206	0.9234098195875392	-0.001400396340174632	0.3487271493779986	6.530804345757842e-05	0.01580329921197577	4.695574045090639e-05
0.908	0.09267292915532849	0.06020766347548066	-0.01157723844175329	1.198558927480315	-0.002041174465668756	-0.1016534153650146	-0.0001448500076754039	-0.03020705405252006	-7.097988523853372e-05	0.01642966264301516	0.08015426878189263	-0.02437948419654876	1.441457306207936	0.0002068271475989578	-0.9127182219078487	3.48102113011989e-07	8.423406301894207e-05	2.502814600412946e-07
0.909	0.07700018028531598	-0.01729137232946381	-0.01173376691401445	10.55145914192626	-0.05219744107419833	2.156808797245752	-0.001473995028021372	-0.3073872635503348	-0.000722291973677899	-0.01522196790234479	-0.1595577818101367	0.005615475342362797	0.5087188110750041	0.000796251519955553	0.1861990981047143	1.060658310026641e-05	0.002566590537336714	7.626012612835157e-06
0.91	0.02226127991513859	-0.2581488924525362	-0.04292499316242791	0.09078546557696182	0.004309849010448986	-0.5438169222111034	5.491976308430499e-05	0.01145298007685846	2.691196599579717e-05	0.01577440151004202	-0.07887635921904475	0.01345122122856224	3.002774860580335	-0.01020974111481722	0.4215073641289145	5.662506318063782e-05	0.01370218381939309	4.071277638953166e-05
0.911	0.0704415134131722	0.2213290880133035	-0.003504027905126288	-0.2019703643075766	0.0045696120387089	-0.05693238789320796	-3.145868205467109e-05	-0.006560400820799213	-1.541548859976509e-05	-0.01424480891976903	0.07889060232396138	0.01398461611150602	1.976738460932795	-0.00703014608619131	0.778446430705372	0.0001221690178460261	0.0295625690380397	8.783813431566645e-05
0.912	0.044841880061072	-0.337720725624712	0.03342190985120316	0.2019148782516942	0.003964857554003838	-0.6237821220325389	3.45955134668728e-05	0.007214556367924597	1.695260922008047e-05	0.002093220591274036	0.3200885997937529	-0.0007345438139221234	0.8451049918372743	0.001043757873331151	-0.364961207802275	-2.971145878760996e-05	-0.007189605573620981	-2.136220093861844e-05
0.913	0.05402960890365897	-0.01919638745764667	0.01124882840836077	0.7127063365247486	0.007982085869700227	-3.375784028889564	0.0008411394664687065	0.1754114185914712	0.0004121779747042998	-0.007568782664147285	-0.1605484326426463	-0.00982083089870521	0.25221482026139	0.003727354718846527	-0.4435285307263376	4.178746188473893e-06	0.00101117676860511	3.004470981643309e-06
0.914	0.05360658984367909	-0.09852541221246401	-0.004289965306284033	0.1704920937173996	0.005053792134938756	-1.023077148640977	0.0001879122932283	0.03918727302659376	9.20814104348803e-05	-0.02422682702109443	-0.479321276193685	-0.02608436913802289	0.9478782955509518	0.0002646840475420799	-0.2456996790056714	-2.808023310753598e-06	-0.0006794880113483554	-2.01893682277417e-06
0.915	0.03982483487936313	0.2207322235969542	-0.03411912782091592	-0.01551172403131511	0.004388070449157509	-0.3601830735553092	9.621768123622713e-05	0.02006525746566725	4.714890997706795e-05	0.03043393790332311	-0.2400074916492352	-0.0176750292560841	0.9015677735076021	0.0006479905602229756	-0.3102936539812359	2.383902327409157e-05	0.005768588335775763	1.713998659580831e-05
0.916	0.07038455836738992	0.2201442327262695	-0.04179791155889028	-0.01586970480078492	0.004035465478324985	-0.2093937211301495	7.980677883978299e-05	0.01664292408995287	3.910718469548774e-05	0.001067834798466358	0.07979693135498671	-0.001448502926981185	0.9187819555125335	-0.0001177206418549599	-0.07653014424783428	8.805895337000252e-06	0.002130858489587912	6.331338591556738e-06
0.917	0.03032658196810016	-0.1773106028275377	-0.01971923403588521	1.04718439912742	-0.001511286534517747	-0.01824600781813891	-8.459628460816668e-05	-0.01764172872898769	-4.145415433149208e-05	-0.008582988028984136	-0.3999874503983458	0.01250448792377054	0.8000805526896432	0.0009967503618011925	-0.28651857729417	9.070124531280724e-06	0.002194796908145281	6.521316376976769e-06
0.918	0.06192598078908034	0.06075492409809902	-0.01160464742747995	1.869163078853602	-0.01041477897042222	2.093403774321045	-0.0007861348381068445	-0.1639407406900321	-0.0003852244227413467	0.00741457124501324	-0.2385748610287756	-0.002342111251749182	1.424976728202248	-0.002768920494608358	0.1117133856402888	1.649946215913483e-05	0.003992554722709618	1.18629256322329e-05
0.919	0.02979568601109368	-0.2579033311161423	-0.01232224530662547	0.4119784434748659	0.002465638018342309	-0.4144369467693386	3.215031642959881e-05	0.006704634413073784	1.575440558946525e-05	0.03841813330116737	-0.1607626404719821	-0.002120731826882857	0.2513387380046644	0.003732433796740676	-0.4440194391725929	5.487483082402892e-05	0.01327866101641802	3.945437923177437e-05
0.92	0.0616131519847693	-0.01924419426091656	-0.01937896445955612	-1.470981471907834	0.01428775012613681	-1.603004961157144	0.0005954309113751031	0.1241712997679264	0.0002917750467199794	-0.02093852733673555	0.3199036421651674	0.0299148608110105	0.9752164528683946	0.0005060244783238744	-0.364947646388569	-1.915005255284896e-05	-0.004633946974913005	-1.376866997825286e-05
0.921	0.06813471876582734	-0.2579268770056533	-0.02754890892025729	0.4120010320477262	0.001856043126360131	-0.1550565063047958	2.491616668347809e-05	0.005196023154351712	1.22095033349298e-05	-0.007597480056482745	-0.1602766740681326	-0.002159368349783393	1.029630361221376	0.001137195213030963	-0.6530539723866875	3.706745239637679e-06	0.0008969615536348385	2.665107667834481e-06
0.922	0.06235990622234523	0.1405516991144491	0.02689393258158843	0.8333970141836159	-0.0009325796289392589	0.1717525182053609	-4.899728647658999e-05	-0.0102179054373394	-2.40098141996748e-05	-0.007600118782732916	-0.1589162142324741	0.005450511789941738	1.816365518489953	-0.003987225897805743	-0.02261718280678298	3.344805252478703e-05	0.008093789893590097	2.404876933669542e-05
0.923	0.1022135045280064	0.4587938004094729	-0.01830965614695284	0.2845330808403178	0.002901024303884732	-0.3396449873731996	1.399760513586811e-05	0.002919063807663145	6.859153286237188e-06	0.001422096297492665	0.1603132664790914	-0.001373705673603723	1.042423769448505	0.001187644946671699	-0.6878268176379321	-6.642339207499016e-05	-0.01607319227557782	-4.775766342116782e-05
0.924	0.04479986092351104	-0.3376037982417883	0.0181696753187838	0.4473242113757695	0.002088553953078445	-0.3260912982950251	7.053246666009088e-05	0.01470885688617547	3.456255522155599e-05	-0.02993034849875176	-0.000556696243034917	0.01364385245432605	-33.4863461790855	0.4418572994178638	-100.9743508867039	-0.01440377739179016	-3.485439034060327	-0.01035615212023396
0.925	0.04591147783746796	-0.09870614992260866	0.02633733097386723	-0.2503420882259608	0.007069459605297652	-1.022084497620286	0.000109440056897817	0.02282265473973168	5.362818272342205e-05	-0.009584945688039888	-0.639818139591675	0.01162746063726117	0.872703890324709	0.0007352867462631927	-0.2995287084314262	-2.342563992116594e-05	-0.005668557459490561	-1.684276866675934e-05
0.926	0.05402458591509117	-0.01903576991184935	-0.00410319573666446	0.7150094341648058	-0.000342271315783541	0.162129605369504	-0.0001455100418046215	-0.03034469772225642	-7.130331737013819e-05	-0.01494140604095562	-0.07997887112687796	-0.009633781462617879	0.8921060685942328	0.00103466336743366	-0.4272714841905759	4.391537834099193e-06	0.001062668282782987	3.157465754616306e-06
0.927	0.08225889718565139	-0.496886406683069	-0.01290342748385135	0.4840162578479211	0.001855216025340795	-0.3016673621794506	1.415605545825293e-06	0.0002952107074486045	6.93679764317838e-07	-0.007934871124065405	-0.2399154791850065	0.005155031443189068	0.9021576978986142	0.0006445741502933244	-0.3099643281004033	-1.369286523263816e-05	-0.00331341186910922	-9.845014363516166e-06
